<?xml version="1.0" encoding="UTF-8"?>
<svg id="Laag_1" data-name="Laag 1" xmlns="http://www.w3.org/2000/svg" xmlns:xlink="http://www.w3.org/1999/xlink" version="1.1" viewBox="0 0 1623.1 178.5">
  <defs>
    <style>
      .cls-1 {
        clip-path: url(#clippath);
      }

      .cls-2 {
        fill: none;
      }

      .cls-2, .cls-3, .cls-4 {
        stroke-width: 0px;
      }

      .cls-3 {
        fill: #e30613;
      }

      .cls-5 {
        clip-path: url(#clippath-1);
      }

      .cls-6 {
        clip-path: url(#clippath-4);
      }

      .cls-7 {
        clip-path: url(#clippath-3);
      }

      .cls-8 {
        clip-path: url(#clippath-2);
      }

      .cls-9 {
        clip-path: url(#clippath-7);
      }

      .cls-10 {
        clip-path: url(#clippath-8);
      }

      .cls-11 {
        clip-path: url(#clippath-6);
      }

      .cls-12 {
        clip-path: url(#clippath-5);
      }

      .cls-13 {
        clip-path: url(#clippath-9);
      }

      .cls-14 {
        clip-path: url(#clippath-10);
      }

      .cls-4 {
        fill: #fff;
      }
    </style>
    <clipPath id="clippath">
      <rect class="cls-2" width="1623.1" height="178.5"/>
    </clipPath>
    <clipPath id="clippath-1">
      <rect class="cls-2" width="1623.1" height="178.5"/>
    </clipPath>
    <clipPath id="clippath-2">
      <rect class="cls-2" width="1623.1" height="178.5"/>
    </clipPath>
    <clipPath id="clippath-3">
      <rect class="cls-2" width="1623.1" height="178.5"/>
    </clipPath>
    <clipPath id="clippath-4">
      <rect class="cls-2" width="1623.1" height="178.5"/>
    </clipPath>
    <clipPath id="clippath-5">
      <rect class="cls-2" width="1623.1" height="178.5"/>
    </clipPath>
    <clipPath id="clippath-6">
      <rect class="cls-2" width="1623.1" height="178.5"/>
    </clipPath>
    <clipPath id="clippath-7">
      <rect class="cls-2" width="1623.1" height="178.5"/>
    </clipPath>
    <clipPath id="clippath-8">
      <rect class="cls-2" width="1623.1" height="178.5"/>
    </clipPath>
    <clipPath id="clippath-9">
      <rect class="cls-2" width="1623.1" height="178.5"/>
    </clipPath>
    <clipPath id="clippath-10">
      <rect class="cls-2" width="1623.1" height="178.5"/>
    </clipPath>
  </defs>
  <g class="cls-1">
    <path class="cls-4" d="M273.5,107.8c22-8.1,33.8-25.7,33.7-51.5-.1-36.6-23.8-56.4-65.6-56.3h-31.5c0,.1-14.8,35.1-14.8,35.1h38.8c19.2-.2,27.6,6.5,27.6,22.1s-8.3,22.6-27.5,22.7h-23.7c0,0,57.4,97.6,57.4,97.6h49.9c0-.1-44.3-69.7-44.3-69.7Z"/>
  </g>
  <g class="cls-5">
    <polygon class="cls-3" points="150.9 177.4 195.7 177.3 195.3 35.1 150.8 140.3 150.9 177.4"/>
  </g>
  <g class="cls-8">
    <polygon class="cls-3" points="150.4 .3 120 72.3 119.8 .4 75 .5 0 177.9 44.8 177.8 75.3 105.5 75.5 177.5 75.5 177.7 120.2 177.5 120.3 177.3 150.7 105.3 195.2 .1 150.4 .3"/>
  </g>
  <g class="cls-7">
    <polygon class="cls-4" points="562.1 176.6 529.2 176.7 529 111 530 67 529.5 67 494.5 176.8 464.4 176.9 428.7 67.3 428.3 67.3 429.5 111.3 429.7 177 396.5 177.1 396.1 34.1 449.2 33.9 472 106.7 480.1 137 480.5 137 488.7 106.8 510.8 33.7 561.7 33.6 562.1 176.6"/>
  </g>
  <g class="cls-6">
    <path class="cls-4" d="M732.1,104.6c0,46.2-26.2,73.8-69.8,73.9s-70.3-27.3-70.4-73.5c0-46.2,26.4-73.8,70-73.9,43.5,0,70,27.3,70.2,73.5M630,104.9c0,29.3,11.4,44.4,32.2,44.3,20.6-.1,31.8-15.3,31.7-44.5,0-29.3-11.4-44.4-32-44.3-20.8,0-32,15.2-31.9,44.5"/>
  </g>
  <g class="cls-12">
    <path class="cls-4" d="M892,104.1c0,45.7-24.3,71.6-69.2,71.7l-60.7.2-.3-143,60.7-.2c44.8,0,69.4,25.6,69.5,71.3M853.9,104.2c0-28.6-10.7-43.3-35-43.2h-19.7c0,0,.3,86.8.3,86.8h19.7c24.2-.2,34.8-14.9,34.7-43.6"/>
  </g>
  <g class="cls-11">
    <path class="cls-4" d="M1047.3,116.9c0,40.3-21.5,60.5-63.8,60.7-42.1.1-64-20-64.1-60.3l-.3-84.7h37.5c0,0,.2,85.3.2,85.3,0,20.6,8.8,30.5,26.5,30.5,18-.1,26.8-10,26.8-30.6l-.3-85.4h37.1c0,0,.4,84.5.4,84.5Z"/>
  </g>
  <g class="cls-9">
    <path class="cls-3" d="M1189.5,59.9l-14.9,12.2c-8.7-18.8-19.1-26.2-40.2-26.1-22.8,0-35.3,10.7-35.3,24.4s9.6,20.1,39.7,25.2c38.4,6.4,52.1,18.5,52.1,40.6,0,24.5-21.8,40.8-55.1,40.9-30.3.1-50.3-13.1-60.3-30.8l14.9-12.2c7.6,16.4,22.4,26.8,45.8,26.7,22.1-.1,36.8-8.3,36.8-23.7s-9.4-19.5-39.5-24.6c-38.6-6.6-52.5-18.3-52.6-40.2,0-23,20-42.5,53.2-42.6,26.3,0,44.3,10.3,55.4,30.2"/>
  </g>
  <g class="cls-10">
    <path class="cls-3" d="M1330.2,74.9c0,26.9-19.2,43.6-48,43.7h-33.2c0,0,.2,56,.2,56h-17.3c0,.1-.4-143-.4-143h50.5c28.8-.2,48.2,16.4,48.2,43.3M1312,75c0-17.8-10.1-27.3-32.6-27.2h-30.6c0,0,.2,54.7.2,54.7h30.6c22.6-.2,32.5-9.8,32.4-27.5"/>
  </g>
  <g class="cls-13">
    <polygon class="cls-3" points="1472 157.7 1472.1 174 1368.5 174.3 1368.1 31.2 1468.4 30.9 1468.5 47.2 1385.4 47.4 1385.6 93.6 1450.2 93.4 1450.2 109.7 1385.6 109.9 1385.8 158 1472 157.7"/>
  </g>
  <g class="cls-14">
    <path class="cls-3" d="M1565.5,175.9c-40.7.1-66.4-28.2-66.5-73.5,0-45.3,25.8-73.8,65.7-73.9,27.7-.1,46.4,11.6,55.6,33.2l-17.1,8.1c-6.3-16.5-18.1-25.1-37.1-25-29.3,0-48.9,21.4-48.8,57.6,0,36,18.6,57.4,48.3,57.3,19.1-.1,34-9.9,40.2-29.2l17.4,6.5c-9.2,24.4-30.8,38.8-57.7,38.9"/>
  </g>
</svg>