<?xml version="1.0" encoding="utf-8"?>
<!-- Generator: Adobe Illustrator 28.2.0, SVG Export Plug-In . SVG Version: 6.00 Build 0)  -->
<svg version="1.1" id="Laag_1" xmlns="http://www.w3.org/2000/svg" xmlns:xlink="http://www.w3.org/1999/xlink" x="0px" y="0px"
	 viewBox="0 0 1623.1 178.5" style="enable-background:new 0 0 1623.1 178.5;" xml:space="preserve">
<style type="text/css">
	.st0{clip-path:url(#SVGID_00000171718054934010964800000012128374520762318731_);fill:#1F3560;}
	.st1{clip-path:url(#SVGID_00000171718054934010964800000012128374520762318731_);fill:#E30613;}
</style>
<g>
	<defs>
		<rect id="SVGID_1_" width="1623.1" height="178.5"/>
	</defs>
	<clipPath id="SVGID_00000003794906081350599090000016616556792536621745_">
		<use xlink:href="#SVGID_1_"  style="overflow:visible;"/>
	</clipPath>
	<path style="clip-path:url(#SVGID_00000003794906081350599090000016616556792536621745_);fill:#1F3560;" d="M273.5,107.8
		c22-8.1,33.8-25.7,33.7-51.5C307.1,19.7,283.4-0.1,241.6,0l-31.5,0.1l-14.8,35l38.8-0.1c19.2-0.1,27.6,6.6,27.6,22.2
		c0,15.9-8.3,22.6-27.5,22.7L210.5,80l57.4,97.5l49.9-0.1L273.5,107.8z"/>
	<polygon style="clip-path:url(#SVGID_00000003794906081350599090000016616556792536621745_);fill:#E30613;" points="150.9,177.4 
		195.7,177.3 195.3,35.1 150.8,140.3 	"/>
	<polygon style="clip-path:url(#SVGID_00000003794906081350599090000016616556792536621745_);fill:#E30613;" points="150.4,0.3 
		120,72.3 119.8,0.4 75,0.5 0,177.9 44.8,177.8 75.3,105.5 75.5,177.5 75.5,177.7 120.2,177.5 120.3,177.3 150.7,105.3 195.2,0.1 	
		"/>
	<polygon style="clip-path:url(#SVGID_00000003794906081350599090000016616556792536621745_);fill:#1F3560;" points="562.1,176.6 
		529.2,176.7 529,111 530,67 529.5,67 494.5,176.8 464.4,176.9 428.7,67.3 428.3,67.3 429.5,111.3 429.7,177 396.5,177.1 
		396.1,34.1 449.2,33.9 472,106.7 480.1,137 480.5,137 488.7,106.8 510.8,33.7 561.7,33.6 	"/>
	<path style="clip-path:url(#SVGID_00000003794906081350599090000016616556792536621745_);fill:#1F3560;" d="M732.1,104.6
		c0.1,46.2-26.2,73.8-69.8,73.9c-43.6,0.1-70.3-27.3-70.4-73.5c-0.1-46.2,26.4-73.8,70-73.9C705.4,31,731.9,58.4,732.1,104.6
		 M630,104.9c0.1,29.3,11.4,44.4,32.2,44.3c20.6-0.1,31.8-15.3,31.7-44.5c-0.1-29.3-11.4-44.4-32-44.3
		C641.1,60.4,629.9,75.6,630,104.9"/>
	<path style="clip-path:url(#SVGID_00000003794906081350599090000016616556792536621745_);fill:#1F3560;" d="M892,104.1
		c0.1,45.7-24.3,71.6-69.2,71.7l-60.7,0.2L761.8,33l60.7-0.2C867.3,32.7,891.9,58.4,892,104.1 M853.9,104.2
		c-0.1-28.6-10.7-43.3-35-43.2l-19.7,0.1l0.3,86.7l19.7-0.1C843.4,147.6,854,132.9,853.9,104.2"/>
	<path style="clip-path:url(#SVGID_00000003794906081350599090000016616556792536621745_);fill:#1F3560;" d="M1047.3,116.9
		c0.1,40.3-21.5,60.5-63.8,60.7c-42.1,0.1-64-20-64.1-60.3l-0.3-84.7l37.5-0.1l0.2,85.4c0.1,20.6,8.8,30.5,26.5,30.5
		c18-0.1,26.8-10,26.8-30.6l-0.3-85.4l37.1-0.1L1047.3,116.9z"/>
	<path style="clip-path:url(#SVGID_00000003794906081350599090000016616556792536621745_);fill:#E30613;" d="M1189.5,59.9
		l-14.9,12.2c-8.7-18.8-19.1-26.2-40.2-26.1c-22.8,0.1-35.3,10.7-35.3,24.4c0,13.4,9.6,20.1,39.7,25.2c38.4,6.4,52.1,18.5,52.1,40.6
		c0.1,24.5-21.8,40.8-55.1,40.9c-30.3,0.1-50.3-13.1-60.3-30.8l14.9-12.2c7.6,16.4,22.4,26.8,45.8,26.7c22.1-0.1,36.8-8.3,36.8-23.7
		c0-12.4-9.4-19.5-39.5-24.6c-38.6-6.6-52.5-18.3-52.6-40.2c-0.1-23,20-42.5,53.2-42.6C1160.4,29.7,1178.4,40,1189.5,59.9"/>
	<path style="clip-path:url(#SVGID_00000003794906081350599090000016616556792536621745_);fill:#E30613;" d="M1330.2,74.9
		c0.1,26.9-19.2,43.6-48,43.7l-33.2,0.1l0.2,55.9l-17.3,0.1l-0.4-143.1l50.5-0.1C1310.8,31.4,1330.2,48,1330.2,74.9 M1312,75
		c-0.1-17.8-10.1-27.3-32.6-27.2l-30.6,0.1l0.2,54.6l30.6-0.1C1302.2,102.3,1312.1,92.7,1312,75"/>
	<polygon style="clip-path:url(#SVGID_00000003794906081350599090000016616556792536621745_);fill:#E30613;" points="1472,157.7 
		1472.1,174 1368.5,174.3 1368.1,31.2 1468.4,30.9 1468.5,47.2 1385.4,47.4 1385.6,93.6 1450.2,93.4 1450.2,109.7 1385.6,109.9 
		1385.8,158 	"/>
	<path style="clip-path:url(#SVGID_00000003794906081350599090000016616556792536621745_);fill:#E30613;" d="M1565.5,175.9
		c-40.7,0.1-66.4-28.2-66.5-73.5c-0.1-45.3,25.8-73.8,65.7-73.9c27.7-0.1,46.4,11.6,55.6,33.2l-17.1,8.1
		c-6.3-16.5-18.1-25.1-37.1-25c-29.3,0.1-48.9,21.4-48.8,57.6c0.1,36,18.6,57.4,48.3,57.3c19.1-0.1,34-9.9,40.2-29.2l17.4,6.5
		C1614,161.4,1592.4,175.8,1565.5,175.9"/>
</g>
</svg>
